<svg version="1.1"
	xmlns="http://www.w3.org/2000/svg"
	xmlns:xlink="http://www.w3.org/1999/xlink"
	x="0px" y="0px"
	viewBox="0 0 512 512"
	fill="#fff"
	xml:space="preserve" >
	<path d="M478.9,370.1c-5.2-5.6-23.6-22-57.5-43.8c-34.1-21.9-59.3-35.6-66.5-38.8c-1.3-0.6-2.8-0.4-3.9,0.5
	c-11.6,9.1-31.2,25.7-32.3,26.6c-6.8,5.8-6.8,5.8-12.3,4c-9.8-3.2-40.1-19.3-66.5-45.8s-43.4-57.6-46.6-67.3
	c-1.8-5.6-1.8-5.6,4-12.3c0.9-1.1,17.6-20.6,26.6-32.2c0.9-1.1,1.1-2.6,0.5-3.9c-3.2-7.2-16.9-32.4-38.8-66.5
	c-21.8-33.9-38.2-52.3-43.8-57.5c-1-1-2.5-1.3-3.9-0.9c-19.4,6.7-38.2,15.2-56,25.5C64.8,67.6,48.5,79.1,33.3,92
	c-1.1,0.9-1.6,2.4-1.3,3.7c2.1,9.7,12.1,50.4,43.1,106.7c31.6,57.5,53.6,86.9,100,133.2s76.8,69.5,134.4,101.2
	c56.3,31,97,41,106.7,43.1c1.4,0.3,2.8-0.2,3.8-1.3c12.9-15.2,24.3-31.5,34.3-48.6c10.2-17.8,18.8-36.6,25.5-56
	C480.2,372.7,479.9,371.2,478.9,370.1z"/> 
</svg>
