<svg xmlns="http://www.w3.org/2000/svg" viewBox="0 0 2904 1287.37" fill="#bab9b9" xmlns:v="https://vecta.io/nano"><path d="M2817.68 1287.37c-35.622 0-64.5-28.878-64.5-64.5s28.878-64.5 64.5-64.5 64.5 28.878 64.5 64.5c-.044 35.604-28.896 64.456-64.5 64.5zm0-117c-28.995 0-52.5 23.505-52.5 52.5s23.505 52.5 52.5 52.5 52.5-23.505 52.5-52.5c-.033-28.98-23.52-52.467-52.5-52.5zm-24.18 16.53a140.25 140.25 0 0 1 21.29-1.47c10.5 0 17.83 1.58 22.86 5.56 4.2 3.36 6.5 8.3 6.5 14.8 0 9-6.4 15.2-12.48 17.4v.3c4.93 2 7.66 6.7 9.44 13.22 2.2 8 4.4 17.2 5.77 19.92h-16.36c-1.15-2-2.83-7.76-4.93-16.46-1.9-8.8-4.93-11.23-11.43-11.33h-4.83v27.8h-15.83zm15.83 30.4h6.3c8 0 12.7-4 12.7-10.17 0-6.5-4.4-9.75-11.75-9.86a39.8 39.8 0 0 0-7.24.53zM2003 402.12c0 436 520 314 520 456.93 0 75.07-74.14 87-148.14 87s-147.86-29-147.86-87v-68.93h-145.55v68.93c0 134.67 146.78 202 293.4 202s286.14-49.93 286.14-202v-45.93c0-172-520-90-520-411 0-180.2 145.53-271.66 292.45-275 152.47-3.47 306.55 74 306.55 276.5h141c0-306.5-224.82-407.64-447.55-403.5-216.17 4-430.45 106-430.45 402zm-405 833v-442h-161v442h-368v-442H772.8v-356.5H1069V37h368v399.62h158V37h375v783.12c0 238 206 336.67 410.2 332.23 197.7-4.3 393.8-80.23 393.8-332.23 0-330-526-192-526-437.5 0-111.42 90.37-162.8 185.45-165.14 100.76-2.45 206.55 49.8 206.55 186.14h-138c0-62.52-35.92-77.22-68.55-74.47-27.9 2.34-53.26 16.13-53.26 53.47 0 94.5 523.8 78.5 523.8 437.5 0 353-260.25 442.17-523.8 440-270.35-2.23-544.2-106-544.2-440V157.8h-100v389.3h-429V157.8h-111v389.3H905v115.5h295v445.5h100V662.6h432v572.5zm-699-904V37H536.5l-7 796.12c0 89.6-161 89.6-161 0V37H0v855.62c0 466.2 899 466.2 899 0H772.8c0 303.22-648.8 303.22-648.8 0V157.8h116.5v672.8c0 248.1 419.5 250.6 419.5 2.5V157.8h112.8v173.3z"/></svg>