<svg version="1.1"
	xmlns="http://www.w3.org/2000/svg"
	xmlns:xlink="http://www.w3.org/1999/xlink"
	x="0px" y="0px"
	viewBox="0 0 512 512"
	fill="#fff"
	xml:space="preserve" >
	<path d="M491.9,155.9c0-42-30.9-75.8-69.1-75.8c-51.7-2.4-104.5-3.4-158.4-3.4h-16.8c-53.8,0-106.6,0.9-158.4,3.4
	c-38.1,0-69,34-69,76c-2.3,33.2-3.3,66.5-3.3,99.7c-0.1,33.2,1,66.5,3.2,99.8c0,42,30.9,76.1,69,76.1c54.4,2.5,110.1,3.6,166.8,3.5
	c56.8,0.2,112.4-1,166.8-3.5c38.2,0,69.1-34.1,69.1-76.1c2.2-33.3,3.3-66.6,3.2-99.9C495.2,222.5,494.2,189.2,491.9,155.9z
	 M210.2,347.4V163.9l135.4,91.7L210.2,347.4z"/>
</svg>
